<svg width="135" height="40" viewBox="0 0 135 40" fill="none" xmlns="http://www.w3.org/2000/svg">
<path d="M21.5156 20.5391H18.4766V19.3125H21.5156C22.1042 19.3125 22.5807 19.2188 22.9453 19.0312C23.3099 18.8438 23.5755 18.5833 23.7422 18.25C23.9141 17.9167 24 17.5365 24 17.1094C24 16.7188 23.9141 16.3516 23.7422 16.0078C23.5755 15.6641 23.3099 15.388 22.9453 15.1797C22.5807 14.9661 22.1042 14.8594 21.5156 14.8594H18.8281V25H17.3203V13.625H21.5156C22.375 13.625 23.1016 13.7734 23.6953 14.0703C24.2891 14.3672 24.7396 14.7786 25.0469 15.3047C25.3542 15.8255 25.5078 16.4219 25.5078 17.0938C25.5078 17.8229 25.3542 18.4453 25.0469 18.9609C24.7396 19.4766 24.2891 19.8698 23.6953 20.1406C23.1016 20.4062 22.375 20.5391 21.5156 20.5391ZM28.6406 17.875V25H27.1953V16.5469H28.6016L28.6406 17.875ZM31.2812 16.5L31.2734 17.8438C31.1536 17.8177 31.0391 17.8021 30.9297 17.7969C30.8255 17.7865 30.7057 17.7812 30.5703 17.7812C30.237 17.7812 29.9427 17.8333 29.6875 17.9375C29.4323 18.0417 29.2161 18.1875 29.0391 18.375C28.862 18.5625 28.7214 18.7865 28.6172 19.0469C28.5182 19.3021 28.4531 19.5833 28.4219 19.8906L28.0156 20.125C28.0156 19.6146 28.0651 19.1354 28.1641 18.6875C28.2682 18.2396 28.4271 17.8438 28.6406 17.5C28.8542 17.151 29.125 16.8802 29.4531 16.6875C29.7865 16.4896 30.1823 16.3906 30.6406 16.3906C30.7448 16.3906 30.8646 16.4036 31 16.4297C31.1354 16.4505 31.2292 16.474 31.2812 16.5ZM32.0781 20.8672V20.6875C32.0781 20.0781 32.1667 19.513 32.3438 18.9922C32.5208 18.4661 32.776 18.0104 33.1094 17.625C33.4427 17.2344 33.8464 16.9323 34.3203 16.7188C34.7943 16.5 35.3255 16.3906 35.9141 16.3906C36.5078 16.3906 37.0417 16.5 37.5156 16.7188C37.9948 16.9323 38.401 17.2344 38.7344 17.625C39.0729 18.0104 39.3307 18.4661 39.5078 18.9922C39.6849 19.513 39.7734 20.0781 39.7734 20.6875V20.8672C39.7734 21.4766 39.6849 22.0417 39.5078 22.5625C39.3307 23.0833 39.0729 23.5391 38.7344 23.9297C38.401 24.3151 37.9974 24.6172 37.5234 24.8359C37.0547 25.0495 36.5234 25.1562 35.9297 25.1562C35.3359 25.1562 34.8021 25.0495 34.3281 24.8359C33.8542 24.6172 33.4479 24.3151 33.1094 23.9297C32.776 23.5391 32.5208 23.0833 32.3438 22.5625C32.1667 22.0417 32.0781 21.4766 32.0781 20.8672ZM33.5234 20.6875V20.8672C33.5234 21.2891 33.5729 21.6875 33.6719 22.0625C33.7708 22.4323 33.9193 22.7604 34.1172 23.0469C34.3203 23.3333 34.5729 23.5599 34.875 23.7266C35.1771 23.888 35.5286 23.9688 35.9297 23.9688C36.3255 23.9688 36.6719 23.888 36.9688 23.7266C37.2708 23.5599 37.5208 23.3333 37.7188 23.0469C37.9167 22.7604 38.0651 22.4323 38.1641 22.0625C38.2682 21.6875 38.3203 21.2891 38.3203 20.8672V20.6875C38.3203 20.2708 38.2682 19.8776 38.1641 19.5078C38.0651 19.1328 37.9141 18.8021 37.7109 18.5156C37.513 18.224 37.263 17.9948 36.9609 17.8281C36.6641 17.6615 36.3151 17.5781 35.9141 17.5781C35.5182 17.5781 35.1693 17.6615 34.8672 17.8281C34.5703 17.9948 34.3203 18.224 34.1172 18.5156C33.9193 18.8021 33.7708 19.1328 33.6719 19.5078C33.5729 19.8776 33.5234 20.2708 33.5234 20.6875ZM43.0312 18.1719V28.25H41.5781V16.5469H42.9062L43.0312 18.1719ZM48.7266 20.7031V20.8672C48.7266 21.4818 48.6536 22.0521 48.5078 22.5781C48.362 23.099 48.1484 23.5521 47.8672 23.9375C47.5911 24.3229 47.25 24.6224 46.8438 24.8359C46.4375 25.0495 45.9714 25.1562 45.4453 25.1562C44.9089 25.1562 44.4349 25.0677 44.0234 24.8906C43.612 24.7135 43.263 24.4557 42.9766 24.1172C42.6901 23.7786 42.4609 23.3724 42.2891 22.8984C42.1224 22.4245 42.0078 21.8906 41.9453 21.2969V20.4219C42.0078 19.7969 42.125 19.237 42.2969 18.7422C42.4688 18.2474 42.6953 17.8255 42.9766 17.4766C43.263 17.1224 43.6094 16.8542 44.0156 16.6719C44.4219 16.4844 44.8906 16.3906 45.4219 16.3906C45.9531 16.3906 46.4245 16.4948 46.8359 16.7031C47.2474 16.9062 47.5938 17.1979 47.875 17.5781C48.1562 17.9583 48.3672 18.4141 48.5078 18.9453C48.6536 19.4714 48.7266 20.0573 48.7266 20.7031ZM47.2734 20.8672V20.7031C47.2734 20.2812 47.2292 19.8854 47.1406 19.5156C47.0521 19.1406 46.9141 18.8125 46.7266 18.5312C46.5443 18.2448 46.3099 18.0208 46.0234 17.8594C45.737 17.6927 45.3958 17.6094 45 17.6094C44.6354 17.6094 44.3177 17.6719 44.0469 17.7969C43.7812 17.9219 43.5547 18.0911 43.3672 18.3047C43.1797 18.513 43.026 18.7526 42.9062 19.0234C42.7917 19.2891 42.7057 19.5651 42.6484 19.8516V21.875C42.7526 22.2396 42.8984 22.5833 43.0859 22.9062C43.2734 23.224 43.5234 23.4818 43.8359 23.6797C44.1484 23.8724 44.5417 23.9688 45.0156 23.9688C45.4062 23.9688 45.7422 23.888 46.0234 23.7266C46.3099 23.5599 46.5443 23.3333 46.7266 23.0469C46.9141 22.7604 47.0521 22.4323 47.1406 22.0625C47.2292 21.6875 47.2734 21.2891 47.2734 20.8672ZM54.0781 25.1562C53.4896 25.1562 52.9557 25.0573 52.4766 24.8594C52.0026 24.6562 51.5938 24.3724 51.25 24.0078C50.9115 23.6432 50.651 23.2109 50.4688 22.7109C50.2865 22.2109 50.1953 21.6641 50.1953 21.0703V20.7422C50.1953 20.0547 50.2969 19.4427 50.5 18.9062C50.7031 18.3646 50.9792 17.9062 51.3281 17.5312C51.6771 17.1562 52.0729 16.8724 52.5156 16.6797C52.9583 16.487 53.4167 16.3906 53.8906 16.3906C54.4948 16.3906 55.0156 16.4948 55.4531 16.7031C55.8958 16.9115 56.2578 17.2031 56.5391 17.5781C56.8203 17.9479 57.0286 18.3854 57.1641 18.8906C57.2995 19.3906 57.3672 19.9375 57.3672 20.5312V21.1797H51.0547V20H55.9219V19.8906C55.901 19.5156 55.8229 19.151 55.6875 18.7969C55.5573 18.4427 55.349 18.151 55.0625 17.9219C54.776 17.6927 54.3854 17.5781 53.8906 17.5781C53.5625 17.5781 53.2604 17.6484 52.9844 17.7891C52.7083 17.9245 52.4714 18.1276 52.2734 18.3984C52.0755 18.6693 51.9219 19 51.8125 19.3906C51.7031 19.7812 51.6484 20.2318 51.6484 20.7422V21.0703C51.6484 21.4714 51.7031 21.849 51.8125 22.2031C51.9271 22.5521 52.0911 22.8594 52.3047 23.125C52.5234 23.3906 52.7865 23.599 53.0938 23.75C53.4062 23.901 53.7604 23.9766 54.1562 23.9766C54.6667 23.9766 55.099 23.8724 55.4531 23.6641C55.8073 23.4557 56.1172 23.1771 56.3828 22.8281L57.2578 23.5234C57.0755 23.7995 56.8438 24.0625 56.5625 24.3125C56.2812 24.5625 55.9349 24.7656 55.5234 24.9219C55.1172 25.0781 54.6354 25.1562 54.0781 25.1562ZM60.5 17.875V25H59.0547V16.5469H60.4609L60.5 17.875ZM63.1406 16.5L63.1328 17.8438C63.013 17.8177 62.8984 17.8021 62.7891 17.7969C62.6849 17.7865 62.5651 17.7812 62.4297 17.7812C62.0964 17.7812 61.8021 17.8333 61.5469 17.9375C61.2917 18.0417 61.0755 18.1875 60.8984 18.375C60.7214 18.5625 60.5807 18.7865 60.4766 19.0469C60.3776 19.3021 60.3125 19.5833 60.2812 19.8906L59.875 20.125C59.875 19.6146 59.9245 19.1354 60.0234 18.6875C60.1276 18.2396 60.2865 17.8438 60.5 17.5C60.7135 17.151 60.9844 16.8802 61.3125 16.6875C61.6458 16.4896 62.0417 16.3906 62.5 16.3906C62.6042 16.3906 62.724 16.4036 62.8594 16.4297C62.9948 16.4505 63.0885 16.474 63.1406 16.5ZM68.4062 16.5469V17.6562H63.8359V16.5469H68.4062ZM65.3828 14.4922H66.8281V22.9062C66.8281 23.1927 66.8724 23.4089 66.9609 23.5547C67.0495 23.7005 67.1641 23.7969 67.3047 23.8438C67.4453 23.8906 67.5964 23.9141 67.7578 23.9141C67.8776 23.9141 68.0026 23.9036 68.1328 23.8828C68.2682 23.8568 68.3698 23.8359 68.4375 23.8203L68.4453 25C68.3307 25.0365 68.1797 25.0703 67.9922 25.1016C67.8099 25.138 67.5885 25.1562 67.3281 25.1562C66.974 25.1562 66.6484 25.0859 66.3516 24.9453C66.0547 24.8047 65.8177 24.5703 65.6406 24.2422C65.4688 23.9089 65.3828 23.4609 65.3828 22.8984V14.4922ZM71.6719 16.5469V25H70.2188V16.5469H71.6719ZM70.1094 14.3047C70.1094 14.0703 70.1797 13.8724 70.3203 13.7109C70.4661 13.5495 70.6797 13.4688 70.9609 13.4688C71.237 13.4688 71.4479 13.5495 71.5938 13.7109C71.7448 13.8724 71.8203 14.0703 71.8203 14.3047C71.8203 14.5286 71.7448 14.7214 71.5938 14.8828C71.4479 15.0391 71.237 15.1172 70.9609 15.1172C70.6797 15.1172 70.4661 15.0391 70.3203 14.8828C70.1797 14.7214 70.1094 14.5286 70.1094 14.3047ZM77.5 25.1562C76.9115 25.1562 76.3776 25.0573 75.8984 24.8594C75.4245 24.6562 75.0156 24.3724 74.6719 24.0078C74.3333 23.6432 74.0729 23.2109 73.8906 22.7109C73.7083 22.2109 73.6172 21.6641 73.6172 21.0703V20.7422C73.6172 20.0547 73.7188 19.4427 73.9219 18.9062C74.125 18.3646 74.401 17.9062 74.75 17.5312C75.099 17.1562 75.4948 16.8724 75.9375 16.6797C76.3802 16.487 76.8385 16.3906 77.3125 16.3906C77.9167 16.3906 78.4375 16.4948 78.875 16.7031C79.3177 16.9115 79.6797 17.2031 79.9609 17.5781C80.2422 17.9479 80.4505 18.3854 80.5859 18.8906C80.7214 19.3906 80.7891 19.9375 80.7891 20.5312V21.1797H74.4766V20H79.3438V19.8906C79.3229 19.5156 79.2448 19.151 79.1094 18.7969C78.9792 18.4427 78.7708 18.151 78.4844 17.9219C78.1979 17.6927 77.8073 17.5781 77.3125 17.5781C76.9844 17.5781 76.6823 17.6484 76.4062 17.7891C76.1302 17.9245 75.8932 18.1276 75.6953 18.3984C75.4974 18.6693 75.3438 19 75.2344 19.3906C75.125 19.7812 75.0703 20.2318 75.0703 20.7422V21.0703C75.0703 21.4714 75.125 21.849 75.2344 22.2031C75.349 22.5521 75.513 22.8594 75.7266 23.125C75.9453 23.3906 76.2083 23.599 76.5156 23.75C76.8281 23.901 77.1823 23.9766 77.5781 23.9766C78.0885 23.9766 78.5208 23.8724 78.875 23.6641C79.2292 23.4557 79.5391 23.1771 79.8047 22.8281L80.6797 23.5234C80.4974 23.7995 80.2656 24.0625 79.9844 24.3125C79.7031 24.5625 79.3568 24.7656 78.9453 24.9219C78.5391 25.0781 78.0573 25.1562 77.5 25.1562ZM87.3984 22.7578C87.3984 22.5495 87.3516 22.3568 87.2578 22.1797C87.1693 21.9974 86.9844 21.8333 86.7031 21.6875C86.4271 21.5365 86.0104 21.4062 85.4531 21.2969C84.9844 21.1979 84.5599 21.0807 84.1797 20.9453C83.8047 20.8099 83.4844 20.6458 83.2188 20.4531C82.9583 20.2604 82.7578 20.0339 82.6172 19.7734C82.4766 19.513 82.4062 19.2083 82.4062 18.8594C82.4062 18.526 82.4792 18.2109 82.625 17.9141C82.776 17.6172 82.987 17.3542 83.2578 17.125C83.5339 16.8958 83.8646 16.7161 84.25 16.5859C84.6354 16.4557 85.0651 16.3906 85.5391 16.3906C86.2161 16.3906 86.7943 16.5104 87.2734 16.75C87.7526 16.9896 88.1198 17.3099 88.375 17.7109C88.6302 18.1068 88.7578 18.5469 88.7578 19.0312H87.3125C87.3125 18.7969 87.2422 18.5703 87.1016 18.3516C86.9661 18.1276 86.7656 17.9427 86.5 17.7969C86.2396 17.651 85.9193 17.5781 85.5391 17.5781C85.138 17.5781 84.8125 17.6406 84.5625 17.7656C84.3177 17.8854 84.138 18.0391 84.0234 18.2266C83.9141 18.4141 83.8594 18.612 83.8594 18.8203C83.8594 18.9766 83.8854 19.1172 83.9375 19.2422C83.9948 19.362 84.0938 19.474 84.2344 19.5781C84.375 19.6771 84.5729 19.7708 84.8281 19.8594C85.0833 19.9479 85.4089 20.0365 85.8047 20.125C86.4974 20.2812 87.0677 20.4688 87.5156 20.6875C87.9635 20.9062 88.2969 21.1745 88.5156 21.4922C88.7344 21.8099 88.8438 22.1953 88.8438 22.6484C88.8438 23.0182 88.7656 23.3568 88.6094 23.6641C88.4583 23.9714 88.237 24.237 87.9453 24.4609C87.6589 24.6797 87.3151 24.8516 86.9141 24.9766C86.5182 25.0964 86.0729 25.1562 85.5781 25.1562C84.8333 25.1562 84.2031 25.0234 83.6875 24.7578C83.1719 24.4922 82.7812 24.1484 82.5156 23.7266C82.25 23.3047 82.1172 22.8594 82.1172 22.3906H83.5703C83.5911 22.7865 83.7057 23.1016 83.9141 23.3359C84.1224 23.5651 84.3776 23.7292 84.6797 23.8281C84.9818 23.9219 85.2812 23.9688 85.5781 23.9688C85.974 23.9688 86.3047 23.9167 86.5703 23.8125C86.8411 23.7083 87.0469 23.5651 87.1875 23.3828C87.3281 23.2005 87.3984 22.9922 87.3984 22.7578Z" fill="#222222"/>
<path d="M112.828 17.1484L114 18.3203L109 23.3203L104 18.3203L105.172 17.1484L109 20.9766L112.828 17.1484Z" fill="#222222"/>
</svg>
